<svg width="12" height="12" viewBox="0 0 12 12" fill="none" xmlns="http://www.w3.org/2000/svg">
<path d="M3.86011 6.88435L6.88435 3.86011L5.35859 2.33435C5.16132 2.13708 5.1298 1.84803 5.29158 1.68626L6.44383 0.534007C6.6023 0.375531 6.89135 0.407052 7.08861 0.604322L7.45028 0.965984L8.31529 0.100971C8.47376 -0.0575044 8.76281 -0.0259837 8.96008 0.171286L11.8287 3.03992C12.026 3.23719 12.0575 3.52623 11.899 3.68471L11.034 4.54972L11.3957 4.91138C11.5929 5.10865 11.6245 5.3977 11.466 5.55617L10.3137 6.70842C10.152 6.8702 9.86292 6.83868 9.66565 6.64141L8.13989 5.11565L5.11565 8.13989L6.64141 9.66565C6.83868 9.86292 6.8702 10.152 6.71173 10.3104L5.55617 11.466C5.3977 11.6245 5.10865 11.5929 4.91139 11.3957L4.54972 11.034L3.68471 11.899C3.52623 12.0575 3.23719 12.026 3.03992 11.8287L0.171286 8.96008C-0.0259838 8.76281 -0.0575043 8.47376 0.100971 8.31529L0.965984 7.45028L0.604322 7.08861C0.407052 6.89135 0.375531 6.6023 0.534007 6.44383L1.68956 5.28827C1.84803 5.1298 2.13708 5.16132 2.33435 5.35859L3.86011 6.88435Z" fill="white"/>
</svg>
