<svg width="12" height="10" viewBox="0 0 12 10" fill="none" xmlns="http://www.w3.org/2000/svg">
<path fill-rule="evenodd" clip-rule="evenodd" d="M0 5C0 5.9225 0.255 6.23244 0.765 6.854C1.7832 8.09375 3.4908 9.5 6 9.5C8.5092 9.5 10.2168 8.09375 11.235 6.854C11.745 6.233 12 5.92194 12 5C12 4.0775 11.745 3.76756 11.235 3.146C10.2168 1.90625 8.5092 0.5 6 0.5C3.4908 0.5 1.7832 1.90625 0.765 3.146C0.255 3.76813 0 4.07806 0 5ZM6 2.89062C5.40326 2.89062 4.83097 3.11286 4.40901 3.50845C3.98705 3.90403 3.75 4.44056 3.75 5C3.75 5.55944 3.98705 6.09597 4.40901 6.49155C4.83097 6.88714 5.40326 7.10938 6 7.10938C6.59674 7.10938 7.16903 6.88714 7.59099 6.49155C8.01295 6.09597 8.25 5.55944 8.25 5C8.25 4.44056 8.01295 3.90403 7.59099 3.50845C7.16903 3.11286 6.59674 2.89062 6 2.89062Z" fill="white"/>
</svg>
