<svg width="12" height="12" viewBox="0 0 12 12" fill="none" xmlns="http://www.w3.org/2000/svg">
<path fill-rule="evenodd" clip-rule="evenodd" d="M4.93956 0.927306C2.56119 -0.770234 0.284104 2.41808 1.47249 3.9658C-0.548245 5.29476 -0.50552 7.24251 1.70194 8.30628C0.757245 8.4711 0.864849 9.53037 1.78739 9.69069C0.670212 12.8445 4.44901 12.8071 5.01077 9.3371C3.33341 8.7273 2.90932 6.78854 3.0913 5.26779C3.0913 5.26779 3.77807 5.02358 4.12303 4.56361C4.46642 4.10214 4.75283 2.96196 4.75283 2.96196C4.75283 2.96196 5.46967 4.23698 6.32892 4.37333C7.18817 4.50817 8.39238 4.72542 8.50632 5.64835C8.69621 7.17509 8.25313 8.48907 6.74351 9.22922C6.35107 12.4625 8.9573 12.3052 9.19466 10.7215C11.0809 10.5762 10.8799 9.20075 10.1109 7.99465C12.5889 6.95485 12.6459 4.85427 10.1821 3.97928C12.2297 0.476327 7.56636 -1.16877 4.93956 0.927306Z" fill="white"/>
</svg>
