<svg width="14" height="14" viewBox="0 0 14 14" fill="none" xmlns="http://www.w3.org/2000/svg">
<path d="M13.7944 2.69265C13.9079 2.80626 13.9079 2.99043 13.7943 3.10402L3.10356 13.7943C2.98995 13.9079 2.80577 13.9079 2.69216 13.7943L0.205718 11.308C0.0921046 11.1944 0.0921045 11.0102 0.205718 10.8966L2.29905 8.80332C2.41265 8.68972 2.59684 8.68972 2.71045 8.80332L3.88016 9.97299C3.99377 10.0866 4.17795 10.0866 4.29156 9.97299L4.54001 9.72455C4.65362 9.61094 4.65362 9.42674 4.54001 9.31313L3.37033 8.14351C3.25672 8.0299 3.25672 7.8457 3.37033 7.73209L4.11061 6.99185C4.22421 6.87825 4.4084 6.87825 4.52201 6.99185L5.69172 8.16151C5.80533 8.27511 5.98951 8.27511 6.10312 8.16151L6.35157 7.91307C6.46518 7.79946 6.46518 7.61526 6.35157 7.50165L5.18189 6.33203C5.06828 6.21842 5.06828 6.03422 5.18189 5.92061L5.91925 5.18328C6.03286 5.06968 6.21705 5.06968 6.33065 5.18328L7.50037 6.35294C7.61397 6.46655 7.79816 6.46655 7.91176 6.35294L8.16021 6.10451C8.27383 5.9909 8.27383 5.8067 8.16021 5.69309L6.99054 4.52346C6.87692 4.40986 6.87692 4.22566 6.99054 4.11205L7.73081 3.37181C7.84442 3.25821 8.0286 3.2582 8.14221 3.37181L9.31192 4.54147C9.42553 4.65507 9.60972 4.65507 9.72332 4.54147L9.97193 4.29287C10.0855 4.17933 10.0856 3.99524 9.97208 3.88161L8.80298 2.71079C8.68951 2.59716 8.68958 2.41308 8.80313 2.29953L10.897 0.205735C11.0106 0.0921163 11.1949 0.0921361 11.3085 0.205779L13.7944 2.69265Z" fill="white"/>
</svg>
