<svg width="12" height="10" viewBox="0 0 12 10" fill="none" xmlns="http://www.w3.org/2000/svg">
<path d="M10.906 1.05937C10.2698 0.460195 9.42648 0.0944947 8.52837 0.0283248C7.63026 -0.0378451 6.73657 0.199878 6.00872 0.698553C5.24512 0.165021 4.29468 -0.0769081 3.3488 0.0214848C2.40292 0.119878 1.53185 0.551284 0.911012 1.22883C0.290174 1.90637 -0.0343188 2.77973 0.00287797 3.67302C0.0400747 4.56631 0.436198 5.41319 1.11148 6.04311L4.83843 9.54976C5.15052 9.83829 5.57084 10 6.00872 10C6.4466 10 6.86693 9.83829 7.17902 9.54976L10.906 6.04311C11.6067 5.38083 12 4.485 12 3.55124C12 2.61748 11.6067 1.72165 10.906 1.05937Z" fill="white"/>
</svg>
