<svg width="24" height="24" viewBox="0 0 24 24" fill="none" xmlns="http://www.w3.org/2000/svg">
<circle cx="12" cy="12" r="10" fill="url(#paint0_linear_570_7814)"/>
<path fill-rule="evenodd" clip-rule="evenodd" d="M15.5345 7.54791C13.5805 5.48403 10.4195 5.48403 8.46552 7.54791C6.51149 9.55283 6.51149 12.7961 8.46552 14.801C9.27012 15.6265 10.2471 16.0983 11.2241 16.2162C10.8793 16.629 10.8793 17.2776 11.2816 17.6904C11.6839 18.1032 12.3161 18.1032 12.7184 17.6904L15.5345 14.801C17.4885 12.7961 17.4885 9.55283 15.5345 7.54791ZM9.9023 9.02211C8.75287 10.2015 8.75287 12.1474 9.9023 13.3268C11.0517 14.5061 12.9483 14.5061 14.0977 13.3268C15.2471 12.1474 15.2471 10.2015 14.0977 9.02211C12.9483 7.84275 11.0517 7.84275 9.9023 9.02211Z" fill="white"/>
<defs>
<linearGradient id="paint0_linear_570_7814" x1="22" y1="12" x2="2" y2="12" gradientUnits="userSpaceOnUse">
<stop stop-color="#CB4EFF"/>
<stop offset="1" stop-color="#FF4EC1"/>
</linearGradient>
</defs>
</svg>
