<svg width="32" height="32" viewBox="0 0 32 32" fill="none" xmlns="http://www.w3.org/2000/svg">
<path d="M24.1293 6.35381C19.6351 1.88206 12.3649 1.88206 7.87069 6.35381C3.37644 10.6978 3.37644 17.7248 7.87069 22.0688C9.72126 23.8575 11.9684 24.8796 14.2155 25.1351C13.4224 26.0295 13.4224 27.4349 14.3477 28.3292C15.273 29.2236 16.727 29.2236 17.6523 28.3292L24.1293 22.0688C28.6236 17.7248 28.6236 10.6978 24.1293 6.35381ZM11.1753 18.8747C8.53161 16.3194 8.53161 12.1032 11.1753 9.54791C13.819 6.99263 18.181 6.99263 20.8247 9.54791C23.4684 12.1032 23.4684 16.3194 20.8247 18.8747C18.181 21.43 13.819 21.43 11.1753 18.8747Z" fill="url(#paint0_linear_349_14811)"/>
<defs>
<linearGradient id="paint0_linear_349_14811" x1="4.5" y1="16" x2="27.5" y2="16" gradientUnits="userSpaceOnUse">
<stop stop-color="#CB4EFF"/>
<stop offset="1" stop-color="#FF4EC1"/>
</linearGradient>
</defs>
</svg>
