<svg width="32" height="32" viewBox="0 0 32 32" fill="none" xmlns="http://www.w3.org/2000/svg">
<path d="M26.2208 7.33061C24.8954 6.01243 23.1385 5.20789 21.2674 5.06231C19.3964 4.91674 17.5345 5.43973 16.0182 6.53682C14.4273 5.36305 12.4473 4.8308 10.4767 5.04727C8.50608 5.26373 6.69135 6.21282 5.39794 7.70342C4.10453 9.19402 3.4285 11.1154 3.506 13.0806C3.58349 15.0459 4.40875 16.909 5.81558 18.2948L13.5801 26.0095C14.2302 26.6442 15.1059 27 16.0182 27C16.9304 27 17.8061 26.6442 18.4563 26.0095L26.2208 18.2948C27.6806 16.8378 28.5 14.867 28.5 12.8127C28.5 10.7584 27.6806 8.78763 26.2208 7.33061Z" fill="url(#paint0_linear_349_14813)"/>
<defs>
<linearGradient id="paint0_linear_349_14813" x1="3.5" y1="16" x2="28.5" y2="16" gradientUnits="userSpaceOnUse">
<stop stop-color="#CB4EFF"/>
<stop offset="1" stop-color="#FF4EC1"/>
</linearGradient>
</defs>
</svg>
