<svg width="32" height="32" viewBox="0 0 32 32" fill="none" xmlns="http://www.w3.org/2000/svg">
<path d="M28.9636 24.4877C28.7813 23.8262 28.5928 23.1283 28.4776 22.7333C28.451 22.624 28.4839 22.5329 28.5244 22.4657C30.4812 18.9331 29.4281 14.7572 25.9601 12.3163C25.2247 11.8005 24.4083 11.3941 23.5438 11.1083C24.0868 12.224 24.3982 13.4217 24.4754 14.641C24.8766 19.7085 20.7012 24.597 15.1624 25.525C17.89 27.2555 21.4656 27.4706 24.4488 26.1318C24.5159 26.101 24.6248 26.0714 24.7324 26.0953L27.465 26.7021C28.4434 26.9446 29.4243 26.0725 29.1522 25.1845L28.9636 24.4867V24.4877Z" fill="url(#paint0_linear_349_14815)"/>
<path fill-rule="evenodd" clip-rule="evenodd" d="M6.48485 7.94597C12.9575 3.36465 22.725 7.37094 23.1262 14.7688L23.1262 14.7675C23.5996 22.1233 14.9094 26.7205 7.80752 23.5396L4.67616 24.2318C3.62562 24.4994 2.56877 23.5521 2.86748 22.6049L3.63703 19.794C3.67753 19.6551 3.62943 19.5208 3.5826 19.4423C1.39028 15.5033 2.61184 10.6715 6.48485 7.94597Z" fill="url(#paint1_linear_349_14815)"/>
<defs>
<linearGradient id="paint0_linear_349_14815" x1="2.5" y1="16.5" x2="29.5" y2="16.5" gradientUnits="userSpaceOnUse">
<stop stop-color="#CB4EFF"/>
<stop offset="1" stop-color="#FF4EC1"/>
</linearGradient>
<linearGradient id="paint1_linear_349_14815" x1="2.5" y1="16.5" x2="29.5" y2="16.5" gradientUnits="userSpaceOnUse">
<stop stop-color="#CB4EFF"/>
<stop offset="1" stop-color="#FF4EC1"/>
</linearGradient>
</defs>
</svg>
