<svg width="32" height="32" viewBox="0 0 32 32" fill="none" xmlns="http://www.w3.org/2000/svg">
<path fill-rule="evenodd" clip-rule="evenodd" d="M16 29C23.1797 29 29 23.1797 29 16C29 8.8203 23.1797 3 16 3C8.8203 3 3 8.8203 3 16C3 23.1797 8.8203 29 16 29ZM20.7145 14.5556C20.7145 11.8978 18.6025 9.74074 16.0002 9.74074C13.3979 9.74074 11.2859 11.8978 11.2859 14.5556C11.2859 17.2133 13.3979 19.3704 16.0002 19.3704C18.6025 19.3704 20.7145 17.2133 20.7145 14.5556ZM8.77778 23.1163C10.6447 24.9651 13.1902 26.111 15.9998 26.1111C18.8096 26.1111 21.3554 24.9652 23.2222 23.1163C22.7508 21.6046 21.7797 20.3142 20.4974 19.4764C19.3189 20.6031 17.7348 21.2964 16 21.2964C14.2652 21.2964 12.6812 20.6031 11.5026 19.4764C10.2203 20.3237 9.24921 21.6044 8.77778 23.1163Z" fill="url(#paint0_linear_349_14817)"/>
<defs>
<linearGradient id="paint0_linear_349_14817" x1="3" y1="16" x2="29" y2="16" gradientUnits="userSpaceOnUse">
<stop stop-color="#CB4EFF"/>
<stop offset="1" stop-color="#FF4EC1"/>
</linearGradient>
</defs>
</svg>
