<svg width="32" height="32" viewBox="0 0 32 32" fill="none" xmlns="http://www.w3.org/2000/svg">
<path fill-rule="evenodd" clip-rule="evenodd" d="M25.7353 16C25.7353 16.2914 25.8433 16.5729 26.0391 16.7919L27.688 18.5197C27.8603 18.7084 27.9673 18.946 27.9936 19.1982C28.02 19.4504 27.9643 19.7043 27.8346 19.9235L25.3917 24.0749C25.2633 24.2938 25.0679 24.4674 24.8332 24.5708C24.5985 24.6742 24.3366 24.7022 24.0848 24.6508L21.7885 24.1949C21.4963 24.1356 21.1921 24.1834 20.9333 24.3293C20.6745 24.4752 20.4791 24.709 20.3838 24.9868L19.6387 27.1825C19.5568 27.4208 19.4007 27.6278 19.1924 27.7742C18.9842 27.9206 18.7344 27.999 18.4783 27.9984H13.5926C13.3262 28.012 13.0626 27.9397 12.8421 27.7923C12.6215 27.645 12.4561 27.4308 12.3711 27.1825L11.626 24.9868C11.5308 24.709 11.3353 24.4752 11.0765 24.3293C10.8177 24.1834 10.5136 24.1356 10.2214 24.1949L7.92505 24.6508C7.67322 24.7022 7.4113 24.6742 7.17661 24.5708C6.94193 24.4674 6.74648 24.2938 6.61811 24.0749L4.17522 19.9235C4.04228 19.7067 3.9825 19.4542 4.00444 19.2021C4.02638 18.95 4.1289 18.7111 4.29736 18.5197L5.8486 16.7919C6.04442 16.5729 6.15241 16.2914 6.15241 16C6.15241 15.7086 6.04442 15.4271 5.8486 15.2081L4.29736 13.4803C4.1289 13.2889 4.02638 13.05 4.00444 12.7979C3.9825 12.5458 4.04228 12.2933 4.17522 12.0765L6.61811 7.9251C6.74111 7.7214 6.92273 7.55802 7.14009 7.45553C7.35745 7.35304 7.60082 7.31604 7.83955 7.34918L10.1969 7.80511C10.4891 7.86442 10.7933 7.81662 11.0521 7.67073C11.3109 7.52485 11.5063 7.29096 11.6016 7.01322L12.2856 4.81752C12.3706 4.56918 12.536 4.35499 12.7566 4.20766C12.9771 4.06034 13.2407 3.98798 13.5071 4.00163H18.3928C18.6489 4.00098 18.8987 4.0794 19.1069 4.22581C19.3151 4.37222 19.4713 4.57921 19.5532 4.81752L20.2983 7.01322C20.3936 7.29096 20.589 7.52485 20.8478 7.67073C21.1066 7.81662 21.4108 7.86442 21.7029 7.80511L23.9993 7.34918C24.2511 7.29777 24.513 7.32577 24.7477 7.42919C24.9824 7.5326 25.1778 7.70615 25.3062 7.9251L27.7491 12.0765C27.8788 12.2957 27.9345 12.5496 27.9081 12.8018C27.8818 13.054 27.7748 13.2916 27.6025 13.4803L26.0391 15.2081C25.8433 15.4271 25.7353 15.7086 25.7353 16ZM13.2356 12.0095C14.039 11.4821 14.9836 11.2007 15.9499 11.2007C17.2457 11.2007 18.4885 11.7063 19.4047 12.6063C20.321 13.5064 20.8357 14.7271 20.8357 16C20.8357 16.9492 20.5492 17.8771 20.0123 18.6664C19.4755 19.4556 18.7124 20.0708 17.8197 20.434C16.9269 20.7973 15.9445 20.8923 14.9968 20.7071C14.049 20.5219 13.1785 20.0649 12.4952 19.3937C11.8119 18.7225 11.3466 17.8673 11.158 16.9363C10.9695 16.0053 11.0663 15.0403 11.4361 14.1634C11.8059 13.2864 12.4321 12.5368 13.2356 12.0095Z" fill="url(#paint0_linear_349_14819)"/>
<defs>
<linearGradient id="paint0_linear_349_14819" x1="4" y1="16" x2="28" y2="16" gradientUnits="userSpaceOnUse">
<stop stop-color="#CB4EFF"/>
<stop offset="1" stop-color="#FF4EC1"/>
</linearGradient>
</defs>
</svg>
