<svg width="25" height="22" viewBox="0 0 25 22" fill="none" xmlns="http://www.w3.org/2000/svg">
<path d="M22.7208 2.33061C21.3954 1.01243 19.6385 0.207888 17.7674 0.0623146C15.8964 -0.0832592 14.0345 0.439732 12.5182 1.53682C10.9273 0.363047 8.94726 -0.169198 6.97667 0.0472665C5.00608 0.263731 3.19135 1.21282 1.89794 2.70342C0.60453 4.19402 -0.0714974 6.1154 0.00599578 8.08064C0.083489 10.0459 0.908746 11.909 2.31558 13.2948L10.0801 21.0095C10.7302 21.6442 11.6059 22 12.5182 22C13.4304 22 14.3061 21.6442 14.9563 21.0095L22.7208 13.2948C24.1806 11.8378 25 9.86699 25 7.81272C25 5.75845 24.1806 3.78763 22.7208 2.33061Z" fill="#121212"/>
</svg>
