<svg width="21" height="20" viewBox="0 0 21 20" fill="none" xmlns="http://www.w3.org/2000/svg">
<path fill-rule="evenodd" clip-rule="evenodd" d="M0.988157 0.488155C1.63903 -0.162718 2.69431 -0.162718 3.34518 0.488155L10.5 7.64298L17.6548 0.488157C18.3057 -0.162717 19.361 -0.162716 20.0118 0.488157C20.6627 1.13903 20.6627 2.19431 20.0118 2.84518L12.857 10L20.0118 17.1548C20.6627 17.8057 20.6627 18.861 20.0118 19.5118C19.361 20.1627 18.3057 20.1627 17.6548 19.5118L10.5 12.357L3.34518 19.5118C2.6943 20.1627 1.63903 20.1627 0.988155 19.5118C0.337282 18.861 0.337282 17.8057 0.988155 17.1548L8.14298 10L0.988157 2.84518C0.337283 2.1943 0.337283 1.13903 0.988157 0.488155Z" fill="#121212"/>
</svg>
