<svg width="24" height="24" viewBox="0 0 24 24" fill="none" xmlns="http://www.w3.org/2000/svg">
<path d="M20 13.1955C20 9.99348 17.4961 7.39102 14.4199 7.39102H7.46564L8.78757 5.8378C9.17601 5.38161 9.13424 4.68211 8.69569 4.27806C8.49311 4.09124 8.24251 4 7.99191 4C7.69745 4 7.40717 4.126 7.19624 4.37147L4.26627 7.8168C3.91124 8.23389 3.91124 8.86386 4.26627 9.28095L7.19415 12.7241C7.58259 13.1803 8.25504 13.2237 8.6936 12.8197C9.13215 12.4156 9.17392 11.7183 8.78549 11.26L7.37584 9.60246H14.4199C16.3266 9.60246 17.8761 11.2165 17.8761 13.1977C17.8761 15.1789 16.3245 16.7929 14.4199 16.7929H8.71448C8.12765 16.7929 7.65359 17.2882 7.65359 17.8965C7.65359 18.5047 8.12974 19 8.71448 19H14.4178C17.4961 19.0022 20 16.3975 20 13.1955Z" fill="#121212"/>
</svg>
