<svg width="24" height="24" viewBox="0 0 24 24" fill="none" xmlns="http://www.w3.org/2000/svg">
<path d="M4.74765 12.7808H12.7432C13.0595 13.8135 13.9882 14.5656 15.0821 14.5656C16.176 14.5656 17.1048 13.8135 17.421 12.7808H19.2217C19.6339 12.7808 19.9693 12.4305 19.9693 12C19.9693 11.5695 19.6339 11.2192 19.2217 11.2192H17.421C17.1047 10.1865 16.176 9.43439 15.0821 9.43439C13.9882 9.43439 13.0594 10.1865 12.7432 11.2192H4.74765C4.33544 11.2192 4 11.5695 4 12C4 12.4305 4.33544 12.7808 4.74765 12.7808Z" fill="#121212"/>
<path d="M4.74754 7.34645H6.54825C6.86451 8.37914 7.79322 9.13122 8.88711 9.13122C9.98105 9.13122 10.9098 8.37914 11.226 7.34645H19.2216C19.6338 7.34645 19.9692 6.99612 19.9692 6.56561C19.9692 6.1351 19.6338 5.78477 19.2216 5.78477H11.2285C10.9123 4.75208 9.98357 4 8.88968 4C7.79578 4 6.867 4.75208 6.55081 5.78477H4.75011C4.3379 5.78477 4.00246 6.1351 4.00246 6.56561C4.00246 6.99612 4.3379 7.34645 4.75011 7.34645H4.74754Z" fill="#121212"/>
<path d="M19.2517 16.6535H11.2544C10.9382 15.6209 10.0094 14.8688 8.91554 14.8688C7.82165 14.8688 6.89287 15.6209 6.57668 16.6535H4.77597C4.36376 16.6535 4.02832 17.0039 4.02832 17.4344C4.02832 17.8649 4.36376 18.2152 4.77597 18.2152H6.57668C6.89294 19.2479 7.82165 20 8.91554 20C10.0094 20 10.9382 19.2479 11.2544 18.2152H19.2523C19.6646 18.2152 20 17.8649 20 17.4344C20 17.0039 19.6639 16.6535 19.2517 16.6535Z" fill="#121212"/>
</svg>
