<svg width="14" height="14" viewBox="0 0 14 14" fill="none" xmlns="http://www.w3.org/2000/svg">
<path d="M7 0C3.13401 0 0 3.13401 0 7C0 10.866 3.13401 14 7 14C10.866 14 14 10.866 14 7C14 3.13401 10.866 0 7 0ZM7.21778 10.6932C7.09392 10.8045 6.90608 10.8045 6.78222 10.6932C6.67178 10.5939 4.07633 8.23254 4.07633 6.03431C4.08032 5.26159 4.39007 4.52188 4.93789 3.97689C5.48567 3.4319 6.22697 3.12596 6.99977 3.12596C7.77249 3.12596 8.51379 3.4319 9.06158 3.97689C9.60937 4.52188 9.91916 5.26159 9.92312 6.03431C9.92359 8.23254 7.32807 10.5939 7.21778 10.6932Z" fill="white"/>
<path d="M7 7C7.5523 7 8 6.55229 8 5.99999C8 5.44769 7.5523 5 7 5C6.4477 5 6 5.44769 6 5.99999C6 6.55229 6.4477 7 7 7Z" fill="white"/>
</svg>
