<svg width="107" height="26" viewBox="0 0 107 26" fill="none" xmlns="http://www.w3.org/2000/svg">
<path d="M17.7762 4.09582C13.7062 -0.0319412 7.12246 -0.0319412 3.05248 4.09582C-1.01749 8.10565 -1.01749 14.5921 3.05248 18.602C4.72835 20.2531 6.76334 21.1966 8.79833 21.4324C8.0801 22.258 8.0801 23.5553 8.91804 24.3808C9.75597 25.2064 11.0727 25.2064 11.9107 24.3808L17.7762 18.602C21.8462 14.5921 21.8462 8.10565 17.7762 4.09582ZM6.04511 15.6536C3.65101 13.2948 3.65101 9.40295 6.04511 7.04423C8.43922 4.6855 12.3895 4.6855 14.7836 7.04423C17.1777 9.40295 17.1777 13.2948 14.7836 15.6536C12.3895 18.0123 8.43922 18.0123 6.04511 15.6536Z" fill="#EC4ED8"/>
<path d="M17.7762 4.09582C13.7062 -0.0319412 7.12246 -0.0319412 3.05248 4.09582C-1.01749 8.10565 -1.01749 14.5921 3.05248 18.602C4.72835 20.2531 6.76334 21.1966 8.79833 21.4324C8.0801 22.258 8.0801 23.5553 8.91804 24.3808C9.75597 25.2064 11.0727 25.2064 11.9107 24.3808L17.7762 18.602C21.8462 14.5921 21.8462 8.10565 17.7762 4.09582ZM6.04511 15.6536C3.65101 13.2948 3.65101 9.40295 6.04511 7.04423C8.43922 4.6855 12.3895 4.6855 14.7836 7.04423C17.1777 9.40295 17.1777 13.2948 14.7836 15.6536C12.3895 18.0123 8.43922 18.0123 6.04511 15.6536Z" fill="url(#paint0_linear_580_4613)"/>
<g clip-path="url(#clip0_580_4613)">
<path d="M78.403 8.0061C73.3622 8.0061 69.2305 11.9695 69.2305 16.8049C69.2305 21.6402 73.3622 25.6037 78.403 25.6037C80.4276 25.6037 82.2868 24.9695 83.8156 23.8994C83.8569 24.8506 84.6833 25.6037 85.6749 25.6037C86.7078 25.6037 87.5755 24.811 87.5755 23.7805V16.8049C87.5755 11.9299 83.4851 8.0061 78.403 8.0061ZM78.403 21.9573C75.4281 21.9573 72.9904 19.6189 72.9904 16.7652C72.9904 13.9116 75.4281 11.5732 78.403 11.5732C81.3779 11.5732 83.8156 13.9116 83.8156 16.7652C83.8156 19.6189 81.3779 21.9573 78.403 21.9573Z" fill="url(#paint1_linear_580_4613)"/>
<path d="M104.929 9.03662C103.896 9.03662 103.028 9.8293 103.028 10.8598V18.5092C103.028 20.6494 101.086 22.3933 98.7311 22.3933C96.3347 22.3933 94.434 20.6494 94.434 18.5092V10.8598C94.434 9.86894 93.6077 9.03662 92.5334 9.03662C91.4592 9.03662 90.6328 9.8293 90.6328 10.8598V18.5092C90.6328 22.6311 94.2688 26 98.7311 26C103.193 26 106.829 22.6311 106.829 18.5092V10.8598C106.829 9.86894 105.962 9.03662 104.929 9.03662Z" fill="url(#paint2_linear_580_4613)"/>
<path d="M64.1897 0C63.1567 0 62.2891 0.792683 62.2891 1.82317V23.5031C62.2891 24.4939 63.1154 25.3262 64.1897 25.3262C65.2226 25.3262 66.0903 24.5335 66.0903 23.5031V1.82317C66.049 0.792683 65.2226 0 64.1897 0Z" fill="url(#paint3_linear_580_4613)"/>
<path d="M48.943 8.0061C43.9023 8.0061 39.7705 11.9695 39.7705 16.8049C39.7705 21.6402 43.9023 25.6037 48.943 25.6037C50.9676 25.6037 52.8269 24.9695 54.3557 23.8994C54.397 24.8506 55.2233 25.6037 56.2149 25.6037C57.2479 25.6037 58.1156 24.811 58.1156 23.7805V16.8049C58.1156 11.9299 54.0251 8.0061 48.943 8.0061ZM48.943 21.9573C45.9682 21.9573 43.5304 19.6189 43.5304 16.7652C43.5304 13.9116 45.9682 11.6128 48.943 11.6128C51.9179 11.6128 54.3557 13.9512 54.3557 16.8049C54.3557 19.6585 51.9179 21.9573 48.943 21.9573Z" fill="url(#paint4_linear_580_4613)"/>
<path d="M34.7297 0C33.6555 0 32.8291 0.792683 32.8291 1.82317V23.5031C32.8291 24.4939 33.6555 25.3262 34.7297 25.3262C35.804 25.3262 36.6303 24.5335 36.6303 23.5031V1.82317C36.589 0.792683 35.7627 0 34.7297 0Z" fill="url(#paint5_linear_580_4613)"/>
</g>
<defs>
<linearGradient id="paint0_linear_580_4613" x1="-9.22968e-05" y1="6.85165" x2="21.8697" y2="8.50311" gradientUnits="userSpaceOnUse">
<stop stop-color="#CB4EFF"/>
<stop offset="1" stop-color="#FF4EC1"/>
</linearGradient>
<linearGradient id="paint1_linear_580_4613" x1="30.3494" y1="-8.75838" x2="105.924" y2="34.9129" gradientUnits="userSpaceOnUse">
<stop stop-color="#CB4EFF"/>
<stop offset="1" stop-color="#FF4EC1"/>
</linearGradient>
<linearGradient id="paint2_linear_580_4613" x1="28.5865" y1="-20.9756" x2="106.252" y2="23.904" gradientUnits="userSpaceOnUse">
<stop stop-color="#CB4EFF"/>
<stop offset="1" stop-color="#FF4EC1"/>
</linearGradient>
<linearGradient id="paint3_linear_580_4613" x1="-7.6887" y1="-25.5682" x2="148.39" y2="64.6227" gradientUnits="userSpaceOnUse">
<stop stop-color="#CB4EFF"/>
<stop offset="1" stop-color="#FF4EC1"/>
</linearGradient>
<linearGradient id="paint4_linear_580_4613" x1="28.8432" y1="6.10299" x2="104.418" y2="49.7743" gradientUnits="userSpaceOnUse">
<stop stop-color="#CB4EFF"/>
<stop offset="1" stop-color="#FF4EC1"/>
</linearGradient>
<linearGradient id="paint5_linear_580_4613" x1="20.5776" y1="5.12387" x2="176.657" y2="95.3148" gradientUnits="userSpaceOnUse">
<stop stop-color="#CB4EFF"/>
<stop offset="1" stop-color="#FF4EC1"/>
</linearGradient>
<clipPath id="clip0_580_4613">
<rect width="74" height="26" fill="white" transform="translate(32.8291)"/>
</clipPath>
</defs>
</svg>
