<svg width="75" height="26" viewBox="0 0 75 26" fill="none" xmlns="http://www.w3.org/2000/svg">
<path d="M46.403 8.0061C41.3622 8.0061 37.2305 11.9695 37.2305 16.8049C37.2305 21.6402 41.3622 25.6037 46.403 25.6037C48.4276 25.6037 50.2868 24.9695 51.8156 23.8994C51.8569 24.8506 52.6833 25.6037 53.6749 25.6037C54.7078 25.6037 55.5755 24.811 55.5755 23.7805V16.8049C55.5755 11.9299 51.4851 8.0061 46.403 8.0061ZM46.403 21.9573C43.4281 21.9573 40.9904 19.6189 40.9904 16.7652C40.9904 13.9116 43.4281 11.5732 46.403 11.5732C49.3779 11.5732 51.8156 13.9116 51.8156 16.7652C51.8156 19.6189 49.3779 21.9573 46.403 21.9573Z" fill="url(#paint0_linear_580_4363)"/>
<path d="M72.9288 9.03662C71.8958 9.03662 71.0281 9.8293 71.0281 10.8598V18.5092C71.0281 20.6494 69.0862 22.3933 66.7311 22.3933C64.3347 22.3933 62.434 20.6494 62.434 18.5092V10.8598C62.434 9.86894 61.6077 9.03662 60.5334 9.03662C59.4592 9.03662 58.6328 9.8293 58.6328 10.8598V18.5092C58.6328 22.6311 62.2688 26 66.7311 26C71.1934 26 74.8294 22.6311 74.8294 18.5092V10.8598C74.8294 9.86894 73.9617 9.03662 72.9288 9.03662Z" fill="url(#paint1_linear_580_4363)"/>
<path d="M32.1897 0C31.1567 0 30.2891 0.792683 30.2891 1.82317V23.5031C30.2891 24.4939 31.1154 25.3262 32.1897 25.3262C33.2226 25.3262 34.0903 24.5335 34.0903 23.5031V1.82317C34.049 0.792683 33.2226 0 32.1897 0Z" fill="url(#paint2_linear_580_4363)"/>
<path d="M16.943 8.0061C11.9023 8.0061 7.77051 11.9695 7.77051 16.8049C7.77051 21.6402 11.9023 25.6037 16.943 25.6037C18.9676 25.6037 20.8269 24.9695 22.3557 23.8994C22.397 24.8506 23.2233 25.6037 24.2149 25.6037C25.2479 25.6037 26.1156 24.811 26.1156 23.7805V16.8049C26.1156 11.9299 22.0251 8.0061 16.943 8.0061ZM16.943 21.9573C13.9682 21.9573 11.5304 19.6189 11.5304 16.7652C11.5304 13.9116 13.9682 11.6128 16.943 11.6128C19.9179 11.6128 22.3557 13.9512 22.3557 16.8049C22.3557 19.6585 19.9179 21.9573 16.943 21.9573Z" fill="url(#paint3_linear_580_4363)"/>
<path d="M2.72972 0C1.65546 0 0.829102 0.792683 0.829102 1.82317V23.5031C0.829102 24.4939 1.65546 25.3262 2.72972 25.3262C3.80398 25.3262 4.63033 24.5335 4.63033 23.5031V1.82317C4.58901 0.792683 3.76266 0 2.72972 0Z" fill="url(#paint4_linear_580_4363)"/>
<defs>
<linearGradient id="paint0_linear_580_4363" x1="-1.65065" y1="-8.75838" x2="73.9242" y2="34.9129" gradientUnits="userSpaceOnUse">
<stop stop-color="#CB4EFF"/>
<stop offset="1" stop-color="#FF4EC1"/>
</linearGradient>
<linearGradient id="paint1_linear_580_4363" x1="-3.41351" y1="-20.9756" x2="74.2523" y2="23.904" gradientUnits="userSpaceOnUse">
<stop stop-color="#CB4EFF"/>
<stop offset="1" stop-color="#FF4EC1"/>
</linearGradient>
<linearGradient id="paint2_linear_580_4363" x1="-39.6887" y1="-25.5682" x2="116.39" y2="64.6227" gradientUnits="userSpaceOnUse">
<stop stop-color="#CB4EFF"/>
<stop offset="1" stop-color="#FF4EC1"/>
</linearGradient>
<linearGradient id="paint3_linear_580_4363" x1="-3.15682" y1="6.10299" x2="72.418" y2="49.7743" gradientUnits="userSpaceOnUse">
<stop stop-color="#CB4EFF"/>
<stop offset="1" stop-color="#FF4EC1"/>
</linearGradient>
<linearGradient id="paint4_linear_580_4363" x1="-11.4224" y1="5.12387" x2="144.657" y2="95.3148" gradientUnits="userSpaceOnUse">
<stop stop-color="#CB4EFF"/>
<stop offset="1" stop-color="#FF4EC1"/>
</linearGradient>
</defs>
</svg>
