<svg width="33" height="32" viewBox="0 0 33 32" fill="none" xmlns="http://www.w3.org/2000/svg">
<path d="M30.5 6.70694C30.5 5.75864 29.7432 5 28.7973 5H4.2027C3.25676 5 2.5 5.75864 2.5 6.70694C2.5 6.8026 2.5485 6.89283 2.63126 6.95111L16.1989 16.5059C16.2224 16.5224 16.2536 16.5309 16.2736 16.5509C16.2928 16.5702 16.3228 16.5783 16.3478 16.5907C16.4431 16.638 16.5569 16.638 16.6522 16.5907C16.6772 16.5783 16.7072 16.5702 16.7264 16.5509C16.7464 16.5309 16.7776 16.5224 16.8011 16.5059L30.3687 6.95111C30.4515 6.89283 30.5 6.8026 30.5 6.70694Z" fill="white"/>
<path d="M14.4946 18.9584L3.30402 11.1019C2.97506 10.871 2.5 11.086 2.5 11.4658V25.2931C2.5 26.2414 3.25676 27 4.2027 27H28.7973C29.7432 27 30.5 26.2414 30.5 25.2931V11.4658C30.5 11.086 30.0249 10.871 29.696 11.1019L18.5054 18.9584C17.9 19.4136 17.1811 19.6412 16.5 19.6412C15.8189 19.6412 15.0622 19.4136 14.4946 18.9584Z" fill="white"/>
</svg>
