<svg width="24" height="24" viewBox="0 0 24 24" fill="none" xmlns="http://www.w3.org/2000/svg">
<circle cx="12" cy="12" r="10" fill="url(#paint0_linear_570_7810)"/>
<path d="M15.7777 8.29306L10.8277 13.2431L8.7077 11.1221C8.61486 11.0291 8.50462 10.9554 8.38329 10.9051C8.26196 10.8548 8.1319 10.8289 8.00056 10.8289C7.73529 10.8288 7.48084 10.934 7.2932 11.1216C7.10556 11.3091 7.00009 11.5634 7 11.8287C6.99991 12.094 7.10519 12.3484 7.2927 12.5361L10.0507 15.2941C10.1529 15.3963 10.2741 15.4773 10.4076 15.5326C10.5411 15.588 10.6842 15.6164 10.8287 15.6164C10.9732 15.6164 11.1163 15.588 11.2498 15.5326C11.3833 15.4773 11.5046 15.3963 11.6067 15.2941L17.1927 9.70806C17.3803 9.52041 17.4858 9.26592 17.4858 9.00056C17.4858 8.73519 17.3803 8.4807 17.1927 8.29306C17.0051 8.10541 16.7506 8 16.4852 8C16.2198 8 15.9653 8.10541 15.7777 8.29306Z" fill="white"/>
<path d="M15.7777 8.29306L10.8277 13.2431L8.7077 11.1221C8.61486 11.0291 8.50462 10.9554 8.38329 10.9051C8.26196 10.8548 8.1319 10.8289 8.00056 10.8289C7.73529 10.8288 7.48084 10.934 7.2932 11.1216C7.10556 11.3091 7.00009 11.5634 7 11.8287C6.99991 12.094 7.10519 12.3484 7.2927 12.5361L10.0507 15.2941C10.1529 15.3963 10.2741 15.4773 10.4076 15.5326C10.5411 15.588 10.6842 15.6164 10.8287 15.6164C10.9732 15.6164 11.1163 15.588 11.2498 15.5326C11.3833 15.4773 11.5046 15.3963 11.6067 15.2941L17.1927 9.70806C17.3803 9.52041 17.4858 9.26592 17.4858 9.00056C17.4858 8.73519 17.3803 8.4807 17.1927 8.29306C17.0051 8.10541 16.7506 8 16.4852 8C16.2198 8 15.9653 8.10541 15.7777 8.29306Z" fill="white"/>
<defs>
<linearGradient id="paint0_linear_570_7810" x1="2" y1="12" x2="22" y2="12" gradientUnits="userSpaceOnUse">
<stop stop-color="#CB4EFF"/>
<stop offset="1" stop-color="#FF4EC1"/>
</linearGradient>
</defs>
</svg>
